<svg width="24" height="24" viewBox="0 0 24 24" fill="none" xmlns="http://www.w3.org/2000/svg">
<g id="email" clip-path="url(#clip0_15_22)">
<path id="Vector" d="M4.5 14.454H2C1.60218 14.454 1.22064 14.2959 0.93934 14.0146C0.658035 13.7333 0.5 13.3518 0.5 12.954V1.95398C0.5 1.757 0.538799 1.56194 0.614181 1.37995C0.689563 1.19797 0.800052 1.03261 0.93934 0.893319C1.22064 0.612015 1.60218 0.453979 2 0.453979H20C20.3978 0.453979 20.7794 0.612015 21.0607 0.893319C21.342 1.17462 21.5 1.55615 21.5 1.95398V11.454" stroke="#FFBB00" stroke-linecap="round" stroke-linejoin="round"/>
<path id="Vector_2" d="M21.0671 0.900024L11.0001 8.95403L0.933105 0.900024" stroke="#FFBB00" stroke-linecap="round" stroke-linejoin="round"/>
<path id="Vector_3" d="M14.4999 18.954V16.954C22.4999 16.954 23.4999 23.454 23.4999 23.454C23.4999 23.454 23.4999 13.954 14.4999 13.954V11.954L10.0139 15.454L14.4999 18.954Z" stroke="#FFBB00" stroke-linecap="round" stroke-linejoin="round"/>
<path id="Vector_4" d="M11 11.954L6.5 15.454L11 18.954" stroke="#FFBB00" stroke-linecap="round" stroke-linejoin="round"/>
</g>
<defs>
<clipPath id="clip0_15_22">
<rect width="24" height="24" fill="white"/>
</clipPath>
</defs>
</svg>
