<svg width="24" height="24" viewBox="0 0 24 24" fill="none" xmlns="http://www.w3.org/2000/svg">
<g id="shopping-bag 1" clip-path="url(#clip0_20_60)">
<path id="Vector" d="M19.049 6.75H4.93604C4.59714 6.73618 4.26475 6.84587 4.00063 7.05867C3.73651 7.27147 3.55863 7.57292 3.50004 7.907L1.50004 21.822C1.48968 22.013 1.51983 22.2041 1.5885 22.3826C1.65718 22.5612 1.76283 22.7232 1.89852 22.858C2.03422 22.9929 2.19689 23.0975 2.37587 23.1651C2.55485 23.2326 2.74609 23.2616 2.93704 23.25H21.048C21.2389 23.2616 21.4301 23.2326 21.6091 23.1651C21.788 23.0975 21.9506 22.9929 22.0862 22.858C22.2219 22.7231 22.3274 22.5611 22.396 22.3826C22.4645 22.204 22.4945 22.013 22.484 21.822L20.484 7.907C20.4255 7.5731 20.2477 7.27179 19.9838 7.05901C19.7199 6.84623 19.3878 6.73643 19.049 6.75Z" stroke="#E4A30B" stroke-width="1.5" stroke-linecap="round" stroke-linejoin="round"/>
<path id="Vector_2" d="M15.678 3.807C15.5137 2.94892 15.0562 2.17469 14.3837 1.61697C13.7112 1.05924 12.8657 0.752746 11.992 0.75C11.1218 0.75266 10.2794 1.05684 9.60828 1.61076C8.93712 2.16468 8.47869 2.93409 8.31104 3.788" stroke="#E4A30B" stroke-width="1.5" stroke-linecap="round" stroke-linejoin="round"/>
<path id="Vector_3" d="M10.2309 19.224C10.1004 19.289 9.95537 19.3196 9.80965 19.3129C9.66394 19.3063 9.52235 19.2625 9.39828 19.1858C9.27421 19.1091 9.17178 19.002 9.10067 18.8746C9.02956 18.7473 8.99214 18.6039 8.99194 18.458V12.67C8.99214 12.5241 9.02956 12.3807 9.10067 12.2534C9.17178 12.126 9.27421 12.0189 9.39828 11.9422C9.52235 11.8655 9.66394 11.8217 9.80965 11.815C9.95537 11.8084 10.1004 11.839 10.2309 11.904L16.0189 14.8C16.1611 14.8711 16.2806 14.9804 16.3641 15.1156C16.4476 15.2508 16.4919 15.4066 16.4919 15.5655C16.4919 15.7244 16.4476 15.8802 16.3641 16.0154C16.2806 16.1506 16.1611 16.2599 16.0189 16.331L10.2309 19.224Z" stroke="#E4A30B" stroke-width="1.5" stroke-linecap="round" stroke-linejoin="round"/>
</g>
<defs>
<clipPath id="clip0_20_60">
<rect width="24" height="24" fill="white"/>
</clipPath>
</defs>
</svg>
