<svg width="24" height="24" viewBox="0 0 24 24" fill="none" xmlns="http://www.w3.org/2000/svg">
<g id="whatsapp" clip-path="url(#clip0_15_20)">
<path id="Vector" d="M5.92998 14.9101C5.99998 14.7901 6.19998 14.7101 6.48998 14.5701C6.77998 14.4301 8.22998 13.7201 8.48998 13.6201C8.74998 13.5201 8.95998 13.4701 9.14998 13.7701C9.33998 14.0701 9.64998 14.5001 9.81998 14.6901C9.98998 14.8801 10.16 14.9101 10.46 14.7601C12.1712 14.0144 13.6151 12.7658 14.6 11.1801C14.77 10.8901 14.6 10.7301 14.47 10.5901C13.98 10.1001 13.97 10.1701 13.85 9.93007C13.8071 9.85192 13.7846 9.76422 13.7846 9.67507C13.7846 9.58593 13.8071 9.49822 13.85 9.42007C14 9.25007 14.55 7.83007 14.8 7.25007C15.05 6.67007 16.31 6.56007 16.8 7.10007C22 12.5801 9.32998 21.9701 6.08998 16.2501C5.9568 16.0602 5.87252 15.8404 5.84462 15.6101C5.81671 15.3799 5.84603 15.1463 5.92998 14.9301M12 1.00007C14.9723 0.989433 17.8273 2.15861 19.9384 4.25095C22.0495 6.3433 23.2441 9.18781 23.26 12.1601C23.2644 14.5128 22.5144 16.805 21.12 18.7001L22.52 22.8501L18.2 21.4801C16.5085 22.5908 14.5489 23.2251 12.5274 23.3164C10.5059 23.4076 8.49721 22.9524 6.71251 21.9987C4.92781 21.0449 3.43311 19.6279 2.38562 17.8965C1.33813 16.1652 0.776559 14.1836 0.75998 12.1601C0.775851 9.19128 1.9677 6.3498 4.07447 4.25803C6.18123 2.16626 9.03116 0.994738 12 1.00007Z" stroke="#E4A30B" stroke-width="1.5" stroke-linecap="round" stroke-linejoin="round"/>
</g>
<defs>
<clipPath id="clip0_15_20">
<rect width="24" height="24" fill="white" transform="matrix(-1 0 0 1 24 0)"/>
</clipPath>
</defs>
</svg>
